<svg viewBox="0 0 200 200" xmlns="http://www.w3.org/2000/svg">
  <!-- Gradient Definitions -->
  <defs>
    <linearGradient id="primaryGradient" x1="0%" y1="0%" x2="100%" y2="100%">
      <stop offset="0%" style="stop-color:#8B5CF6;stop-opacity:1" />
      <stop offset="100%" style="stop-color:#3B82F6;stop-opacity:1" />
    </linearGradient>
    <linearGradient id="accentGradient" x1="0%" y1="0%" x2="100%" y2="100%">
      <stop offset="0%" style="stop-color:#06B6D4;stop-opacity:1" />
      <stop offset="100%" style="stop-color:#10B981;stop-opacity:1" />
    </linearGradient>
  </defs>

  <!-- Central Circle (Hub) -->
  <circle cx="100" cy="100" r="24" fill="url(#primaryGradient)" opacity="0.9"/>

  <!-- Connecting Lines (flowing contribution streams) -->
  <path d="M 100 76 Q 70 50 45 45" stroke="url(#accentGradient)" stroke-width="4" fill="none" stroke-linecap="round" opacity="0.7"/>
  <path d="M 100 76 Q 100 40 100 20" stroke="url(#accentGradient)" stroke-width="4" fill="none" stroke-linecap="round" opacity="0.7"/>
  <path d="M 100 76 Q 130 50 155 45" stroke="url(#accentGradient)" stroke-width="4" fill="none" stroke-linecap="round" opacity="0.7"/>

  <path d="M 124 100 Q 150 100 175 100" stroke="url(#accentGradient)" stroke-width="4" fill="none" stroke-linecap="round" opacity="0.7"/>

  <path d="M 100 124 Q 130 150 155 155" stroke="url(#accentGradient)" stroke-width="4" fill="none" stroke-linecap="round" opacity="0.7"/>
  <path d="M 100 124 Q 100 160 100 180" stroke="url(#accentGradient)" stroke-width="4" fill="none" stroke-linecap="round" opacity="0.7"/>
  <path d="M 100 124 Q 70 150 45 155" stroke="url(#accentGradient)" stroke-width="4" fill="none" stroke-linecap="round" opacity="0.7"/>

  <path d="M 76 100 Q 50 100 25 100" stroke="url(#accentGradient)" stroke-width="4" fill="none" stroke-linecap="round" opacity="0.7"/>

  <!-- Outer Nodes (contributors) -->
  <circle cx="45" cy="45" r="10" fill="url(#primaryGradient)"/>
  <circle cx="100" cy="20" r="10" fill="url(#primaryGradient)"/>
  <circle cx="155" cy="45" r="10" fill="url(#primaryGradient)"/>
  <circle cx="175" cy="100" r="10" fill="url(#primaryGradient)"/>
  <circle cx="155" cy="155" r="10" fill="url(#primaryGradient)"/>
  <circle cx="100" cy="180" r="10" fill="url(#primaryGradient)"/>
  <circle cx="45" cy="155" r="10" fill="url(#primaryGradient)"/>
  <circle cx="25" cy="100" r="10" fill="url(#primaryGradient)"/>

  <!-- Inner highlight for depth -->
  <circle cx="100" cy="100" r="16" fill="white" opacity="0.2"/>
</svg>
